<svg xmlns="http://www.w3.org/2000/svg" xmlns:xlink="http://www.w3.org/1999/xlink" width="1400" zoomAndPan="magnify" viewBox="0 0 1050 374.999991" height="500" preserveAspectRatio="xMidYMid meet" version="1.2"><defs><clipPath id="bd94ac70d4"><path d="M 445 98 L 533 98 L 533 185 L 445 185 Z M 445 98 "/></clipPath><clipPath id="8ae993a821"><path d="M 426.773438 113.308594 L 487.363281 52.722656 L 578.246094 143.605469 L 517.65625 204.191406 Z M 426.773438 113.308594 "/></clipPath><clipPath id="d1cbf4fa08"><path d="M 426.773438 113.308594 L 487.363281 52.722656 L 578.246094 143.605469 L 517.65625 204.191406 Z M 426.773438 113.308594 "/></clipPath><clipPath id="3fff816433"><path d="M 502 43 L 590 43 L 590 130 L 502 130 Z M 502 43 "/></clipPath><clipPath id="11cd383e15"><path d="M 483.78125 58.304688 L 544.367188 -2.285156 L 635.25 88.597656 L 574.664062 149.1875 Z M 483.78125 58.304688 "/></clipPath><clipPath id="f33c93c4d9"><path d="M 483.78125 58.304688 L 544.367188 -2.285156 L 635.25 88.597656 L 574.664062 149.1875 Z M 483.78125 58.304688 "/></clipPath></defs><g id="39baabef76"><g clip-rule="nonzero" clip-path="url(#bd94ac70d4)"><g clip-rule="nonzero" clip-path="url(#8ae993a821)"><g clip-rule="nonzero" clip-path="url(#d1cbf4fa08)"><path style=" stroke:none;fill-rule:nonzero;fill:#ff914d;fill-opacity:1;" d="M 532.589844 98.753906 L 456.492188 98.367188 C 441.792969 98.292969 440.441406 126.972656 457.84375 126.761719 L 505.164062 126.179688 L 503.425781 173.886719 C 502.894531 188.414062 531.203125 188.832031 531.429688 174.078125 Z M 532.589844 98.753906 "/></g></g></g><g style="fill:#373643;fill-opacity:1;"><g transform="translate(66.89958, 284.960662)"><path style="stroke:none" d="M 1.328125 -28.640625 C 0.441406 -32.296875 1.328125 -35.195312 3.984375 -37.34375 C 6.640625 -39.5 9.609375 -40.578125 12.890625 -40.578125 C 15.421875 -40.578125 17.664062 -39.976562 19.625 -38.78125 C 21.582031 -37.582031 22.816406 -35.71875 23.328125 -33.1875 C 24.710938 -29.132812 27.332031 -26.003906 31.1875 -23.796875 C 35.050781 -21.585938 39.382812 -20.070312 44.1875 -19.25 C 48.988281 -18.425781 53.472656 -18.015625 57.640625 -18.015625 C 60.929688 -18.015625 64.535156 -18.265625 68.453125 -18.765625 C 72.367188 -19.273438 76.097656 -20.191406 79.640625 -21.515625 C 83.179688 -22.847656 86.085938 -24.710938 88.359375 -27.109375 C 90.640625 -29.515625 91.78125 -32.613281 91.78125 -36.40625 C 91.78125 -40.445312 90.101562 -43.414062 86.75 -45.3125 C 83.40625 -47.21875 79.140625 -48.578125 73.953125 -49.390625 C 68.765625 -50.210938 63.328125 -50.816406 57.640625 -51.203125 C 51.191406 -51.703125 44.710938 -52.457031 38.203125 -53.46875 C 31.691406 -54.476562 25.75 -56.117188 20.375 -58.390625 C 15.007812 -60.671875 10.679688 -63.992188 7.390625 -68.359375 C 4.109375 -72.722656 2.46875 -78.503906 2.46875 -85.703125 C 2.46875 -92.148438 4.109375 -97.710938 7.390625 -102.390625 C 10.679688 -107.066406 14.976562 -110.890625 20.28125 -113.859375 C 25.59375 -116.835938 31.347656 -119.050781 37.546875 -120.5 C 43.742188 -121.957031 49.8125 -122.6875 55.75 -122.6875 C 62.320312 -122.6875 69.210938 -121.925781 76.421875 -120.40625 C 83.628906 -118.894531 90.234375 -116.207031 96.234375 -112.34375 C 102.234375 -108.488281 106.691406 -103.085938 109.609375 -96.140625 C 110.617188 -92.597656 109.890625 -89.65625 107.421875 -87.3125 C 104.953125 -84.976562 102.078125 -83.8125 98.796875 -83.8125 C 96.773438 -83.8125 94.847656 -84.285156 93.015625 -85.234375 C 91.179688 -86.179688 89.882812 -87.476562 89.125 -89.125 C 87.601562 -93.039062 84.945312 -95.945312 81.15625 -97.84375 C 77.363281 -99.738281 73.191406 -100.96875 68.640625 -101.53125 C 64.085938 -102.101562 59.851562 -102.390625 55.9375 -102.390625 C 53.40625 -102.390625 50.398438 -102.132812 46.921875 -101.625 C 43.453125 -101.125 40.070312 -100.242188 36.78125 -98.984375 C 33.5 -97.722656 30.75 -95.984375 28.53125 -93.765625 C 26.320312 -91.554688 25.21875 -88.804688 25.21875 -85.515625 C 25.21875 -81.472656 26.796875 -78.441406 29.953125 -76.421875 C 33.117188 -74.398438 37.320312 -73.007812 42.5625 -72.25 C 47.8125 -71.488281 53.535156 -70.851562 59.734375 -70.34375 C 66.304688 -69.71875 72.847656 -68.992188 79.359375 -68.171875 C 85.867188 -67.347656 91.773438 -65.894531 97.078125 -63.8125 C 102.390625 -61.726562 106.625 -58.566406 109.78125 -54.328125 C 112.945312 -50.085938 114.53125 -44.175781 114.53125 -36.59375 C 114.53125 -29.007812 112.726562 -22.75 109.125 -17.8125 C 105.519531 -12.882812 100.8125 -8.96875 95 -6.0625 C 89.1875 -3.15625 82.992188 -1.101562 76.421875 0.09375 C 69.847656 1.289062 63.585938 1.890625 57.640625 1.890625 C 52.710938 1.890625 47.34375 1.414062 41.53125 0.46875 C 35.71875 -0.476562 30.0625 -2.117188 24.5625 -4.453125 C 19.0625 -6.796875 14.222656 -9.925781 10.046875 -13.84375 C 5.878906 -17.757812 2.972656 -22.691406 1.328125 -28.640625 Z M 1.328125 -28.640625 "/></g></g><g style="fill:#373643;fill-opacity:1;"><g transform="translate(182.184011, 284.960662)"><path style="stroke:none" d="M 52.140625 -18.015625 C 55.054688 -19.660156 57.679688 -20.226562 60.015625 -19.71875 C 62.359375 -19.21875 64.253906 -18.113281 65.703125 -16.40625 C 67.160156 -14.695312 67.890625 -12.703125 67.890625 -10.421875 C 67.890625 -8.785156 67.382812 -7.144531 66.375 -5.5 C 65.363281 -3.851562 63.78125 -2.460938 61.625 -1.328125 C 58.84375 0.191406 56.3125 1.109375 54.03125 1.421875 C 51.757812 1.734375 49.109375 1.890625 46.078125 1.890625 C 37.859375 1.890625 31.535156 0.1875 27.109375 -3.21875 C 22.691406 -6.632812 19.660156 -11.0625 18.015625 -16.5 C 16.367188 -21.9375 15.546875 -27.6875 15.546875 -33.75 L 15.546875 -78.5 L 8.34375 -78.5 C 4.800781 -78.5 2.175781 -79.445312 0.46875 -81.34375 C -1.226562 -83.238281 -2.078125 -85.265625 -2.078125 -87.421875 C -2.078125 -89.691406 -1.195312 -91.773438 0.5625 -93.671875 C 2.332031 -95.566406 4.925781 -96.515625 8.34375 -96.515625 L 15.546875 -96.515625 L 15.546875 -112.828125 C 15.546875 -116.109375 16.617188 -118.570312 18.765625 -120.21875 C 20.921875 -121.863281 23.390625 -122.6875 26.171875 -122.6875 C 28.828125 -122.6875 31.289062 -121.863281 33.5625 -120.21875 C 35.84375 -118.570312 36.984375 -116.109375 36.984375 -112.828125 L 36.984375 -96.515625 L 51.765625 -96.515625 C 55.054688 -96.515625 57.582031 -95.566406 59.34375 -93.671875 C 61.113281 -91.773438 62 -89.691406 62 -87.421875 C 62 -85.140625 61.113281 -83.082031 59.34375 -81.25 C 57.582031 -79.414062 55.054688 -78.5 51.765625 -78.5 L 36.984375 -78.5 L 36.984375 -33.75 C 36.984375 -30.96875 37.171875 -28.28125 37.546875 -25.6875 C 37.921875 -23.101562 38.769531 -20.957031 40.09375 -19.25 C 41.425781 -17.539062 43.421875 -16.6875 46.078125 -16.6875 C 47.085938 -16.6875 48.191406 -16.84375 49.390625 -17.15625 C 50.597656 -17.476562 51.515625 -17.765625 52.140625 -18.015625 Z M 52.140625 -18.015625 "/></g></g><g style="fill:#373643;fill-opacity:1;"><g transform="translate(247.979329, 284.960662)"><path style="stroke:none" d="M 88.171875 -96.515625 C 91.460938 -96.515625 94.085938 -95.597656 96.046875 -93.765625 C 98.003906 -91.929688 98.984375 -89.5625 98.984375 -86.65625 L 98.984375 -9.859375 C 98.984375 -6.953125 98.003906 -4.582031 96.046875 -2.75 C 94.085938 -0.914062 91.460938 0 88.171875 0 C 85.015625 0 82.550781 -0.722656 80.78125 -2.171875 C 79.007812 -3.628906 77.9375 -5.5625 77.5625 -7.96875 C 73.257812 -4.550781 68.453125 -2.050781 63.140625 -0.46875 C 57.835938 1.101562 52.78125 1.890625 47.96875 1.890625 C 38.875 1.890625 31.003906 -0.191406 24.359375 -4.359375 C 17.722656 -8.535156 12.632812 -14.414062 9.09375 -22 C 5.5625 -29.582031 3.796875 -38.429688 3.796875 -48.546875 C 3.796875 -58.398438 5.753906 -67.054688 9.671875 -74.515625 C 13.585938 -81.972656 19.050781 -87.820312 26.0625 -92.0625 C 33.082031 -96.300781 41.207031 -98.421875 50.4375 -98.421875 C 54.488281 -98.421875 58.976562 -97.660156 63.90625 -96.140625 C 68.832031 -94.617188 73.382812 -92.21875 77.5625 -88.9375 C 78.0625 -91.207031 79.195312 -93.035156 80.96875 -94.421875 C 82.738281 -95.816406 85.140625 -96.515625 88.171875 -96.515625 Z M 50.25 -17.25 C 55.8125 -17.25 61.179688 -18.484375 66.359375 -20.953125 C 71.546875 -23.421875 75.210938 -27.054688 77.359375 -31.859375 L 77.359375 -64.65625 C 74.960938 -69.332031 71.363281 -72.9375 66.5625 -75.46875 C 61.757812 -78 56.890625 -79.265625 51.953125 -79.265625 C 43.992188 -79.265625 37.578125 -76.351562 32.703125 -70.53125 C 27.835938 -64.71875 25.40625 -57.328125 25.40625 -48.359375 C 25.40625 -39.003906 27.679688 -31.476562 32.234375 -25.78125 C 36.785156 -20.09375 42.789062 -17.25 50.25 -17.25 Z M 50.25 -17.25 "/></g></g><g style="fill:#373643;fill-opacity:1;"><g transform="translate(357.575369, 284.960662)"><path style="stroke:none" d="M 43.609375 -106.953125 C 41.335938 -106.953125 39.253906 -106.191406 37.359375 -104.671875 C 35.460938 -103.148438 34.515625 -100.8125 34.515625 -97.65625 L 34.515625 -94.4375 L 47.03125 -94.4375 C 50.1875 -94.4375 52.488281 -93.488281 53.9375 -91.59375 C 55.394531 -89.695312 56.125 -87.671875 56.125 -85.515625 C 56.125 -83.242188 55.394531 -81.191406 53.9375 -79.359375 C 52.488281 -77.523438 50.1875 -76.609375 47.03125 -76.609375 L 34.515625 -76.609375 L 34.515625 -9.484375 C 34.515625 -6.316406 33.375 -3.941406 31.09375 -2.359375 C 28.820312 -0.785156 26.359375 0 23.703125 0 C 20.921875 0 18.421875 -0.785156 16.203125 -2.359375 C 13.992188 -3.941406 12.890625 -6.316406 12.890625 -9.484375 L 12.890625 -76.609375 L 7.96875 -76.609375 C 4.800781 -76.609375 2.394531 -77.523438 0.75 -79.359375 C -0.882812 -81.191406 -1.703125 -83.242188 -1.703125 -85.515625 C -1.703125 -87.671875 -0.882812 -89.695312 0.75 -91.59375 C 2.394531 -93.488281 4.800781 -94.4375 7.96875 -94.4375 L 12.890625 -94.4375 L 12.890625 -97.65625 C 12.890625 -103.59375 14.3125 -108.613281 17.15625 -112.71875 C 20 -116.832031 23.726562 -119.960938 28.34375 -122.109375 C 32.957031 -124.265625 37.796875 -125.34375 42.859375 -125.34375 C 46.523438 -125.34375 50.125 -124.835938 53.65625 -123.828125 C 57.195312 -122.816406 60.421875 -121.046875 63.328125 -118.515625 C 65.734375 -116.367188 66.90625 -114.03125 66.84375 -111.5 C 66.78125 -108.96875 65.894531 -106.753906 64.1875 -104.859375 C 62.476562 -102.960938 60.359375 -101.820312 57.828125 -101.4375 C 55.304688 -101.0625 52.78125 -102.015625 50.25 -104.296875 C 48.476562 -106.066406 46.265625 -106.953125 43.609375 -106.953125 Z M 43.609375 -106.953125 "/></g></g><g style="fill:#373643;fill-opacity:1;"><g transform="translate(416.734217, 284.960662)"><path style="stroke:none" d="M 43.609375 -106.953125 C 41.335938 -106.953125 39.253906 -106.191406 37.359375 -104.671875 C 35.460938 -103.148438 34.515625 -100.8125 34.515625 -97.65625 L 34.515625 -94.4375 L 47.03125 -94.4375 C 50.1875 -94.4375 52.488281 -93.488281 53.9375 -91.59375 C 55.394531 -89.695312 56.125 -87.671875 56.125 -85.515625 C 56.125 -83.242188 55.394531 -81.191406 53.9375 -79.359375 C 52.488281 -77.523438 50.1875 -76.609375 47.03125 -76.609375 L 34.515625 -76.609375 L 34.515625 -9.484375 C 34.515625 -6.316406 33.375 -3.941406 31.09375 -2.359375 C 28.820312 -0.785156 26.359375 0 23.703125 0 C 20.921875 0 18.421875 -0.785156 16.203125 -2.359375 C 13.992188 -3.941406 12.890625 -6.316406 12.890625 -9.484375 L 12.890625 -76.609375 L 7.96875 -76.609375 C 4.800781 -76.609375 2.394531 -77.523438 0.75 -79.359375 C -0.882812 -81.191406 -1.703125 -83.242188 -1.703125 -85.515625 C -1.703125 -87.671875 -0.882812 -89.695312 0.75 -91.59375 C 2.394531 -93.488281 4.800781 -94.4375 7.96875 -94.4375 L 12.890625 -94.4375 L 12.890625 -97.65625 C 12.890625 -103.59375 14.3125 -108.613281 17.15625 -112.71875 C 20 -116.832031 23.726562 -119.960938 28.34375 -122.109375 C 32.957031 -124.265625 37.796875 -125.34375 42.859375 -125.34375 C 46.523438 -125.34375 50.125 -124.835938 53.65625 -123.828125 C 57.195312 -122.816406 60.421875 -121.046875 63.328125 -118.515625 C 65.734375 -116.367188 66.90625 -114.03125 66.84375 -111.5 C 66.78125 -108.96875 65.894531 -106.753906 64.1875 -104.859375 C 62.476562 -102.960938 60.359375 -101.820312 57.828125 -101.4375 C 55.304688 -101.0625 52.78125 -102.015625 50.25 -104.296875 C 48.476562 -106.066406 46.265625 -106.953125 43.609375 -106.953125 Z M 43.609375 -106.953125 "/></g></g><g style="fill:#373643;fill-opacity:1;"><g transform="translate(68.4779, 326.87269)"><path style="stroke:none" d="M 16.203125 -24.203125 L 16.203125 -22.890625 L 9.3125 -22.890625 L 9.3125 0 L 7.765625 0 L 7.765625 -22.890625 L 0.859375 -22.890625 L 0.859375 -24.203125 Z M 16.203125 -24.203125 "/></g></g><g style="fill:#373643;fill-opacity:1;"><g transform="translate(85.997284, 326.87269)"><path style="stroke:none" d="M 11.3125 -19.109375 C 13.519531 -19.109375 15.320312 -18.421875 16.71875 -17.046875 C 18.125 -15.679688 18.828125 -13.65625 18.828125 -10.96875 L 18.828125 0 L 17.3125 0 L 17.3125 -10.859375 C 17.3125 -13.085938 16.75 -14.796875 15.625 -15.984375 C 14.5 -17.171875 12.96875 -17.765625 11.03125 -17.765625 C 9.007812 -17.765625 7.394531 -17.117188 6.1875 -15.828125 C 4.976562 -14.535156 4.375 -12.628906 4.375 -10.109375 L 4.375 0 L 2.828125 0 L 2.828125 -25.515625 L 4.375 -25.515625 L 4.375 -14.765625 C 4.90625 -16.160156 5.789062 -17.234375 7.03125 -17.984375 C 8.269531 -18.734375 9.695312 -19.109375 11.3125 -19.109375 Z M 11.3125 -19.109375 "/></g></g><g style="fill:#373643;fill-opacity:1;"><g transform="translate(107.930997, 326.87269)"><path style="stroke:none" d="M 19.6875 -10.625 C 19.6875 -9.789062 19.664062 -9.171875 19.625 -8.765625 L 3.453125 -8.765625 C 3.492188 -7.078125 3.859375 -5.660156 4.546875 -4.515625 C 5.242188 -3.367188 6.15625 -2.503906 7.28125 -1.921875 C 8.40625 -1.347656 9.632812 -1.0625 10.96875 -1.0625 C 12.800781 -1.0625 14.335938 -1.515625 15.578125 -2.421875 C 16.828125 -3.335938 17.613281 -4.578125 17.9375 -6.140625 L 19.546875 -6.140625 C 19.179688 -4.234375 18.238281 -2.6875 16.71875 -1.5 C 15.207031 -0.3125 13.289062 0.28125 10.96875 0.28125 C 9.21875 0.28125 7.648438 -0.109375 6.265625 -0.890625 C 4.890625 -1.671875 3.8125 -2.789062 3.03125 -4.25 C 2.25 -5.71875 1.859375 -7.425781 1.859375 -9.375 C 1.859375 -11.332031 2.242188 -13.035156 3.015625 -14.484375 C 3.785156 -15.929688 4.859375 -17.039062 6.234375 -17.8125 C 7.617188 -18.582031 9.195312 -18.96875 10.96875 -18.96875 C 12.757812 -18.96875 14.316406 -18.582031 15.640625 -17.8125 C 16.960938 -17.039062 17.96875 -16.015625 18.65625 -14.734375 C 19.34375 -13.460938 19.6875 -12.09375 19.6875 -10.625 Z M 18.140625 -10.03125 C 18.210938 -11.6875 17.921875 -13.085938 17.265625 -14.234375 C 16.609375 -15.390625 15.710938 -16.25 14.578125 -16.8125 C 13.453125 -17.375 12.238281 -17.65625 10.9375 -17.65625 C 9.625 -17.65625 8.410156 -17.375 7.296875 -16.8125 C 6.179688 -16.25 5.269531 -15.390625 4.5625 -14.234375 C 3.863281 -13.085938 3.492188 -11.6875 3.453125 -10.03125 Z M 18.140625 -10.03125 "/></g></g><g style="fill:#373643;fill-opacity:1;"><g transform="translate(129.933701, 326.87269)"><path style="stroke:none" d=""/></g></g><g style="fill:#373643;fill-opacity:1;"><g transform="translate(140.107366, 326.87269)"><path style="stroke:none" d="M 15.890625 0 L 9.6875 -10.3125 L 4.375 -10.3125 L 4.375 0 L 2.828125 0 L 2.828125 -24.203125 L 9.484375 -24.203125 C 12.171875 -24.203125 14.1875 -23.570312 15.53125 -22.3125 C 16.875 -21.050781 17.546875 -19.375 17.546875 -17.28125 C 17.546875 -15.414062 17.023438 -13.878906 15.984375 -12.671875 C 14.941406 -11.460938 13.421875 -10.722656 11.421875 -10.453125 L 17.765625 0 Z M 4.375 -11.625 L 9.546875 -11.625 C 11.691406 -11.625 13.289062 -12.140625 14.34375 -13.171875 C 15.40625 -14.203125 15.9375 -15.570312 15.9375 -17.28125 C 15.9375 -20.976562 13.785156 -22.828125 9.484375 -22.828125 L 4.375 -22.828125 Z M 4.375 -11.625 "/></g></g><g style="fill:#373643;fill-opacity:1;"><g transform="translate(159.902905, 326.87269)"><path style="stroke:none" d="M 3.625 -22.890625 C 3.25 -22.890625 2.9375 -23.007812 2.6875 -23.25 C 2.4375 -23.5 2.3125 -23.832031 2.3125 -24.25 C 2.3125 -24.632812 2.4375 -24.953125 2.6875 -25.203125 C 2.9375 -25.460938 3.25 -25.59375 3.625 -25.59375 C 3.988281 -25.59375 4.296875 -25.460938 4.546875 -25.203125 C 4.804688 -24.953125 4.9375 -24.632812 4.9375 -24.25 C 4.9375 -23.832031 4.804688 -23.5 4.546875 -23.25 C 4.296875 -23.007812 3.988281 -22.890625 3.625 -22.890625 Z M 4.375 -18.71875 L 4.375 0 L 2.828125 0 L 2.828125 -18.71875 Z M 4.375 -18.71875 "/></g></g><g style="fill:#373643;fill-opacity:1;"><g transform="translate(167.593531, 326.87269)"><path style="stroke:none" d="M 10.890625 -18.96875 C 12.867188 -18.96875 14.546875 -18.488281 15.921875 -17.53125 C 17.304688 -16.582031 18.273438 -15.359375 18.828125 -13.859375 L 18.828125 -18.71875 L 20.375 -18.71875 L 20.375 0.59375 C 20.375 2.3125 19.992188 3.816406 19.234375 5.109375 C 18.484375 6.410156 17.460938 7.410156 16.171875 8.109375 C 14.878906 8.816406 13.441406 9.171875 11.859375 9.171875 C 9.515625 9.171875 7.570312 8.609375 6.03125 7.484375 C 4.488281 6.359375 3.476562 4.84375 3 2.9375 L 4.546875 2.9375 C 5.003906 4.425781 5.863281 5.613281 7.125 6.5 C 8.394531 7.382812 9.972656 7.828125 11.859375 7.828125 C 13.171875 7.828125 14.351562 7.53125 15.40625 6.9375 C 16.46875 6.351562 17.300781 5.515625 17.90625 4.421875 C 18.519531 3.335938 18.828125 2.0625 18.828125 0.59375 L 18.828125 -4.890625 C 18.273438 -3.398438 17.300781 -2.164062 15.90625 -1.1875 C 14.519531 -0.207031 12.847656 0.28125 10.890625 0.28125 C 9.148438 0.28125 7.59375 -0.113281 6.21875 -0.90625 C 4.851562 -1.707031 3.785156 -2.835938 3.015625 -4.296875 C 2.242188 -5.753906 1.859375 -7.445312 1.859375 -9.375 C 1.859375 -11.3125 2.242188 -13.003906 3.015625 -14.453125 C 3.785156 -15.898438 4.851562 -17.015625 6.21875 -17.796875 C 7.59375 -18.578125 9.148438 -18.96875 10.890625 -18.96875 Z M 18.828125 -9.375 C 18.828125 -11.007812 18.488281 -12.453125 17.8125 -13.703125 C 17.132812 -14.960938 16.207031 -15.929688 15.03125 -16.609375 C 13.863281 -17.285156 12.554688 -17.625 11.109375 -17.625 C 9.585938 -17.625 8.25 -17.296875 7.09375 -16.640625 C 5.945312 -15.984375 5.050781 -15.035156 4.40625 -13.796875 C 3.769531 -12.554688 3.453125 -11.082031 3.453125 -9.375 C 3.453125 -7.675781 3.769531 -6.207031 4.40625 -4.96875 C 5.050781 -3.726562 5.953125 -2.773438 7.109375 -2.109375 C 8.273438 -1.441406 9.609375 -1.109375 11.109375 -1.109375 C 12.554688 -1.109375 13.867188 -1.445312 15.046875 -2.125 C 16.234375 -2.800781 17.160156 -3.765625 17.828125 -5.015625 C 18.492188 -6.265625 18.828125 -7.71875 18.828125 -9.375 Z M 18.828125 -9.375 "/></g></g><g style="fill:#373643;fill-opacity:1;"><g transform="translate(191.251608, 326.87269)"><path style="stroke:none" d="M 11.3125 -19.109375 C 13.519531 -19.109375 15.320312 -18.421875 16.71875 -17.046875 C 18.125 -15.679688 18.828125 -13.65625 18.828125 -10.96875 L 18.828125 0 L 17.3125 0 L 17.3125 -10.859375 C 17.3125 -13.085938 16.75 -14.796875 15.625 -15.984375 C 14.5 -17.171875 12.96875 -17.765625 11.03125 -17.765625 C 9.007812 -17.765625 7.394531 -17.117188 6.1875 -15.828125 C 4.976562 -14.535156 4.375 -12.628906 4.375 -10.109375 L 4.375 0 L 2.828125 0 L 2.828125 -25.515625 L 4.375 -25.515625 L 4.375 -14.765625 C 4.90625 -16.160156 5.789062 -17.234375 7.03125 -17.984375 C 8.269531 -18.734375 9.695312 -19.109375 11.3125 -19.109375 Z M 11.3125 -19.109375 "/></g></g><g style="fill:#373643;fill-opacity:1;"><g transform="translate(213.185322, 326.87269)"><path style="stroke:none" d="M 5.140625 -17.375 L 5.140625 -5 C 5.140625 -3.625 5.390625 -2.675781 5.890625 -2.15625 C 6.398438 -1.632812 7.300781 -1.375 8.59375 -1.375 L 10.6875 -1.375 L 10.6875 0 L 8.34375 0 C 6.707031 0 5.503906 -0.382812 4.734375 -1.15625 C 3.972656 -1.925781 3.59375 -3.207031 3.59375 -5 L 3.59375 -17.375 L 0.765625 -17.375 L 0.765625 -18.71875 L 3.59375 -18.71875 L 3.59375 -23.484375 L 5.140625 -23.484375 L 5.140625 -18.71875 L 10.6875 -18.71875 L 10.6875 -17.375 Z M 5.140625 -17.375 "/></g></g><g style="fill:#373643;fill-opacity:1;"><g transform="translate(225.600647, 326.87269)"><path style="stroke:none" d=""/></g></g><g style="fill:#373643;fill-opacity:1;"><g transform="translate(235.774312, 326.87269)"><path style="stroke:none" d="M 9.828125 0.234375 C 8.265625 0.234375 6.894531 -0.0351562 5.71875 -0.578125 C 4.550781 -1.128906 3.640625 -1.875 2.984375 -2.8125 C 2.328125 -3.757812 1.953125 -4.8125 1.859375 -5.96875 L 3.484375 -5.96875 C 3.671875 -4.695312 4.265625 -3.566406 5.265625 -2.578125 C 6.265625 -1.597656 7.785156 -1.109375 9.828125 -1.109375 C 11.023438 -1.109375 12.066406 -1.320312 12.953125 -1.75 C 13.835938 -2.1875 14.519531 -2.785156 15 -3.546875 C 15.476562 -4.304688 15.71875 -5.144531 15.71875 -6.0625 C 15.71875 -7.238281 15.4375 -8.171875 14.875 -8.859375 C 14.3125 -9.546875 13.609375 -10.0625 12.765625 -10.40625 C 11.929688 -10.757812 10.800781 -11.128906 9.375 -11.515625 C 7.8125 -11.929688 6.550781 -12.34375 5.59375 -12.75 C 4.644531 -13.164062 3.84375 -13.804688 3.1875 -14.671875 C 2.53125 -15.535156 2.203125 -16.710938 2.203125 -18.203125 C 2.203125 -19.359375 2.503906 -20.410156 3.109375 -21.359375 C 3.722656 -22.316406 4.59375 -23.070312 5.71875 -23.625 C 6.851562 -24.175781 8.15625 -24.453125 9.625 -24.453125 C 11.757812 -24.453125 13.484375 -23.921875 14.796875 -22.859375 C 16.109375 -21.804688 16.890625 -20.507812 17.140625 -18.96875 L 15.484375 -18.96875 C 15.347656 -19.582031 15.039062 -20.210938 14.5625 -20.859375 C 14.09375 -21.503906 13.425781 -22.039062 12.5625 -22.46875 C 11.707031 -22.894531 10.679688 -23.109375 9.484375 -23.109375 C 7.867188 -23.109375 6.507812 -22.664062 5.40625 -21.78125 C 4.3125 -20.894531 3.765625 -19.71875 3.765625 -18.25 C 3.765625 -17.070312 4.050781 -16.128906 4.625 -15.421875 C 5.195312 -14.722656 5.898438 -14.195312 6.734375 -13.84375 C 7.578125 -13.488281 8.710938 -13.128906 10.140625 -12.765625 C 11.722656 -12.328125 12.976562 -11.90625 13.90625 -11.5 C 14.84375 -11.09375 15.640625 -10.457031 16.296875 -9.59375 C 16.953125 -8.738281 17.28125 -7.578125 17.28125 -6.109375 C 17.28125 -5.023438 16.988281 -4 16.40625 -3.03125 C 15.832031 -2.070312 14.988281 -1.285156 13.875 -0.671875 C 12.757812 -0.0664062 11.410156 0.234375 9.828125 0.234375 Z M 9.828125 0.234375 "/></g></g><g style="fill:#373643;fill-opacity:1;"><g transform="translate(255.328428, 326.87269)"><path style="stroke:none" d="M 5.140625 -17.375 L 5.140625 -5 C 5.140625 -3.625 5.390625 -2.675781 5.890625 -2.15625 C 6.398438 -1.632812 7.300781 -1.375 8.59375 -1.375 L 10.6875 -1.375 L 10.6875 0 L 8.34375 0 C 6.707031 0 5.503906 -0.382812 4.734375 -1.15625 C 3.972656 -1.925781 3.59375 -3.207031 3.59375 -5 L 3.59375 -17.375 L 0.765625 -17.375 L 0.765625 -18.71875 L 3.59375 -18.71875 L 3.59375 -23.484375 L 5.140625 -23.484375 L 5.140625 -18.71875 L 10.6875 -18.71875 L 10.6875 -17.375 Z M 5.140625 -17.375 "/></g></g><g style="fill:#373643;fill-opacity:1;"><g transform="translate(267.743753, 326.87269)"><path style="stroke:none" d="M 1.859375 -9.375 C 1.859375 -11.3125 2.242188 -13.003906 3.015625 -14.453125 C 3.785156 -15.898438 4.851562 -17.015625 6.21875 -17.796875 C 7.59375 -18.578125 9.148438 -18.96875 10.890625 -18.96875 C 12.867188 -18.96875 14.546875 -18.484375 15.921875 -17.515625 C 17.304688 -16.546875 18.273438 -15.316406 18.828125 -13.828125 L 18.828125 -18.71875 L 20.375 -18.71875 L 20.375 0 L 18.828125 0 L 18.828125 -4.9375 C 18.273438 -3.414062 17.300781 -2.164062 15.90625 -1.1875 C 14.519531 -0.207031 12.847656 0.28125 10.890625 0.28125 C 9.148438 0.28125 7.59375 -0.113281 6.21875 -0.90625 C 4.851562 -1.707031 3.785156 -2.835938 3.015625 -4.296875 C 2.242188 -5.753906 1.859375 -7.445312 1.859375 -9.375 Z M 18.828125 -9.375 C 18.828125 -11.007812 18.488281 -12.453125 17.8125 -13.703125 C 17.132812 -14.960938 16.207031 -15.929688 15.03125 -16.609375 C 13.863281 -17.285156 12.554688 -17.625 11.109375 -17.625 C 9.585938 -17.625 8.25 -17.296875 7.09375 -16.640625 C 5.945312 -15.984375 5.050781 -15.035156 4.40625 -13.796875 C 3.769531 -12.554688 3.453125 -11.082031 3.453125 -9.375 C 3.453125 -7.675781 3.769531 -6.207031 4.40625 -4.96875 C 5.050781 -3.726562 5.953125 -2.773438 7.109375 -2.109375 C 8.273438 -1.441406 9.609375 -1.109375 11.109375 -1.109375 C 12.554688 -1.109375 13.867188 -1.445312 15.046875 -2.125 C 16.234375 -2.800781 17.160156 -3.765625 17.828125 -5.015625 C 18.492188 -6.265625 18.828125 -7.71875 18.828125 -9.375 Z M 18.828125 -9.375 "/></g></g><g style="fill:#373643;fill-opacity:1;"><g transform="translate(291.401831, 326.87269)"><path style="stroke:none" d="M 9.96875 -17.34375 L 5.109375 -17.34375 L 5.109375 0 L 3.546875 0 L 3.546875 -17.34375 L 0.71875 -17.34375 L 0.71875 -18.71875 L 3.546875 -18.71875 L 3.546875 -20.03125 C 3.546875 -21.988281 4.039062 -23.441406 5.03125 -24.390625 C 6.019531 -25.347656 7.640625 -25.828125 9.890625 -25.828125 L 9.890625 -24.453125 C 8.097656 -24.453125 6.851562 -24.101562 6.15625 -23.40625 C 5.457031 -22.71875 5.109375 -21.59375 5.109375 -20.03125 L 5.109375 -18.71875 L 9.96875 -18.71875 Z M 9.96875 -17.34375 "/></g></g><g style="fill:#373643;fill-opacity:1;"><g transform="translate(302.954995, 326.87269)"><path style="stroke:none" d="M 9.96875 -17.34375 L 5.109375 -17.34375 L 5.109375 0 L 3.546875 0 L 3.546875 -17.34375 L 0.71875 -17.34375 L 0.71875 -18.71875 L 3.546875 -18.71875 L 3.546875 -20.03125 C 3.546875 -21.988281 4.039062 -23.441406 5.03125 -24.390625 C 6.019531 -25.347656 7.640625 -25.828125 9.890625 -25.828125 L 9.890625 -24.453125 C 8.097656 -24.453125 6.851562 -24.101562 6.15625 -23.40625 C 5.457031 -22.71875 5.109375 -21.59375 5.109375 -20.03125 L 5.109375 -18.71875 L 9.96875 -18.71875 Z M 9.96875 -17.34375 "/></g></g><g style="fill:#373643;fill-opacity:1;"><g transform="translate(314.50816, 326.87269)"><path style="stroke:none" d="M 3.859375 -3.625 L 0.625 5.203125 L -0.546875 5.203125 L 2.0625 -3.625 Z M 3.859375 -3.625 "/></g></g><g style="fill:#373643;fill-opacity:1;"><g transform="translate(319.888136, 326.87269)"><path style="stroke:none" d=""/></g></g><g style="fill:#373643;fill-opacity:1;"><g transform="translate(330.061801, 326.87269)"><path style="stroke:none" d="M 16.546875 -6.203125 L 5.0625 -6.203125 L 2.765625 0 L 1.0625 0 L 9.96875 -23.65625 L 11.6875 -23.65625 L 20.546875 0 L 18.859375 0 Z M 16.0625 -7.515625 L 10.828125 -21.625 L 5.546875 -7.515625 Z M 16.0625 -7.515625 "/></g></g><g style="fill:#373643;fill-opacity:1;"><g transform="translate(352.133451, 326.87269)"><path style="stroke:none" d="M 5.140625 -17.375 L 5.140625 -5 C 5.140625 -3.625 5.390625 -2.675781 5.890625 -2.15625 C 6.398438 -1.632812 7.300781 -1.375 8.59375 -1.375 L 10.6875 -1.375 L 10.6875 0 L 8.34375 0 C 6.707031 0 5.503906 -0.382812 4.734375 -1.15625 C 3.972656 -1.925781 3.59375 -3.207031 3.59375 -5 L 3.59375 -17.375 L 0.765625 -17.375 L 0.765625 -18.71875 L 3.59375 -18.71875 L 3.59375 -23.484375 L 5.140625 -23.484375 L 5.140625 -18.71875 L 10.6875 -18.71875 L 10.6875 -17.375 Z M 5.140625 -17.375 "/></g></g><g style="fill:#373643;fill-opacity:1;"><g transform="translate(364.548776, 326.87269)"><path style="stroke:none" d=""/></g></g><g style="fill:#373643;fill-opacity:1;"><g transform="translate(374.722441, 326.87269)"><path style="stroke:none" d="M 5.140625 -17.375 L 5.140625 -5 C 5.140625 -3.625 5.390625 -2.675781 5.890625 -2.15625 C 6.398438 -1.632812 7.300781 -1.375 8.59375 -1.375 L 10.6875 -1.375 L 10.6875 0 L 8.34375 0 C 6.707031 0 5.503906 -0.382812 4.734375 -1.15625 C 3.972656 -1.925781 3.59375 -3.207031 3.59375 -5 L 3.59375 -17.375 L 0.765625 -17.375 L 0.765625 -18.71875 L 3.59375 -18.71875 L 3.59375 -23.484375 L 5.140625 -23.484375 L 5.140625 -18.71875 L 10.6875 -18.71875 L 10.6875 -17.375 Z M 5.140625 -17.375 "/></g></g><g style="fill:#373643;fill-opacity:1;"><g transform="translate(387.137766, 326.87269)"><path style="stroke:none" d="M 11.3125 -19.109375 C 13.519531 -19.109375 15.320312 -18.421875 16.71875 -17.046875 C 18.125 -15.679688 18.828125 -13.65625 18.828125 -10.96875 L 18.828125 0 L 17.3125 0 L 17.3125 -10.859375 C 17.3125 -13.085938 16.75 -14.796875 15.625 -15.984375 C 14.5 -17.171875 12.96875 -17.765625 11.03125 -17.765625 C 9.007812 -17.765625 7.394531 -17.117188 6.1875 -15.828125 C 4.976562 -14.535156 4.375 -12.628906 4.375 -10.109375 L 4.375 0 L 2.828125 0 L 2.828125 -25.515625 L 4.375 -25.515625 L 4.375 -14.765625 C 4.90625 -16.160156 5.789062 -17.234375 7.03125 -17.984375 C 8.269531 -18.734375 9.695312 -19.109375 11.3125 -19.109375 Z M 11.3125 -19.109375 "/></g></g><g style="fill:#373643;fill-opacity:1;"><g transform="translate(409.07148, 326.87269)"><path style="stroke:none" d="M 19.6875 -10.625 C 19.6875 -9.789062 19.664062 -9.171875 19.625 -8.765625 L 3.453125 -8.765625 C 3.492188 -7.078125 3.859375 -5.660156 4.546875 -4.515625 C 5.242188 -3.367188 6.15625 -2.503906 7.28125 -1.921875 C 8.40625 -1.347656 9.632812 -1.0625 10.96875 -1.0625 C 12.800781 -1.0625 14.335938 -1.515625 15.578125 -2.421875 C 16.828125 -3.335938 17.613281 -4.578125 17.9375 -6.140625 L 19.546875 -6.140625 C 19.179688 -4.234375 18.238281 -2.6875 16.71875 -1.5 C 15.207031 -0.3125 13.289062 0.28125 10.96875 0.28125 C 9.21875 0.28125 7.648438 -0.109375 6.265625 -0.890625 C 4.890625 -1.671875 3.8125 -2.789062 3.03125 -4.25 C 2.25 -5.71875 1.859375 -7.425781 1.859375 -9.375 C 1.859375 -11.332031 2.242188 -13.035156 3.015625 -14.484375 C 3.785156 -15.929688 4.859375 -17.039062 6.234375 -17.8125 C 7.617188 -18.582031 9.195312 -18.96875 10.96875 -18.96875 C 12.757812 -18.96875 14.316406 -18.582031 15.640625 -17.8125 C 16.960938 -17.039062 17.96875 -16.015625 18.65625 -14.734375 C 19.34375 -13.460938 19.6875 -12.09375 19.6875 -10.625 Z M 18.140625 -10.03125 C 18.210938 -11.6875 17.921875 -13.085938 17.265625 -14.234375 C 16.609375 -15.390625 15.710938 -16.25 14.578125 -16.8125 C 13.453125 -17.375 12.238281 -17.65625 10.9375 -17.65625 C 9.625 -17.65625 8.410156 -17.375 7.296875 -16.8125 C 6.179688 -16.25 5.269531 -15.390625 4.5625 -14.234375 C 3.863281 -13.085938 3.492188 -11.6875 3.453125 -10.03125 Z M 18.140625 -10.03125 "/></g></g><g style="fill:#373643;fill-opacity:1;"><g transform="translate(431.074184, 326.87269)"><path style="stroke:none" d=""/></g></g><g style="fill:#373643;fill-opacity:1;"><g transform="translate(441.247849, 326.87269)"><path style="stroke:none" d="M 15.890625 0 L 9.6875 -10.3125 L 4.375 -10.3125 L 4.375 0 L 2.828125 0 L 2.828125 -24.203125 L 9.484375 -24.203125 C 12.171875 -24.203125 14.1875 -23.570312 15.53125 -22.3125 C 16.875 -21.050781 17.546875 -19.375 17.546875 -17.28125 C 17.546875 -15.414062 17.023438 -13.878906 15.984375 -12.671875 C 14.941406 -11.460938 13.421875 -10.722656 11.421875 -10.453125 L 17.765625 0 Z M 4.375 -11.625 L 9.546875 -11.625 C 11.691406 -11.625 13.289062 -12.140625 14.34375 -13.171875 C 15.40625 -14.203125 15.9375 -15.570312 15.9375 -17.28125 C 15.9375 -20.976562 13.785156 -22.828125 9.484375 -22.828125 L 4.375 -22.828125 Z M 4.375 -11.625 "/></g></g><g style="fill:#373643;fill-opacity:1;"><g transform="translate(461.043387, 326.87269)"><path style="stroke:none" d="M 3.625 -22.890625 C 3.25 -22.890625 2.9375 -23.007812 2.6875 -23.25 C 2.4375 -23.5 2.3125 -23.832031 2.3125 -24.25 C 2.3125 -24.632812 2.4375 -24.953125 2.6875 -25.203125 C 2.9375 -25.460938 3.25 -25.59375 3.625 -25.59375 C 3.988281 -25.59375 4.296875 -25.460938 4.546875 -25.203125 C 4.804688 -24.953125 4.9375 -24.632812 4.9375 -24.25 C 4.9375 -23.832031 4.804688 -23.5 4.546875 -23.25 C 4.296875 -23.007812 3.988281 -22.890625 3.625 -22.890625 Z M 4.375 -18.71875 L 4.375 0 L 2.828125 0 L 2.828125 -18.71875 Z M 4.375 -18.71875 "/></g></g><g style="fill:#373643;fill-opacity:1;"><g transform="translate(468.734013, 326.87269)"><path style="stroke:none" d="M 10.890625 -18.96875 C 12.867188 -18.96875 14.546875 -18.488281 15.921875 -17.53125 C 17.304688 -16.582031 18.273438 -15.359375 18.828125 -13.859375 L 18.828125 -18.71875 L 20.375 -18.71875 L 20.375 0.59375 C 20.375 2.3125 19.992188 3.816406 19.234375 5.109375 C 18.484375 6.410156 17.460938 7.410156 16.171875 8.109375 C 14.878906 8.816406 13.441406 9.171875 11.859375 9.171875 C 9.515625 9.171875 7.570312 8.609375 6.03125 7.484375 C 4.488281 6.359375 3.476562 4.84375 3 2.9375 L 4.546875 2.9375 C 5.003906 4.425781 5.863281 5.613281 7.125 6.5 C 8.394531 7.382812 9.972656 7.828125 11.859375 7.828125 C 13.171875 7.828125 14.351562 7.53125 15.40625 6.9375 C 16.46875 6.351562 17.300781 5.515625 17.90625 4.421875 C 18.519531 3.335938 18.828125 2.0625 18.828125 0.59375 L 18.828125 -4.890625 C 18.273438 -3.398438 17.300781 -2.164062 15.90625 -1.1875 C 14.519531 -0.207031 12.847656 0.28125 10.890625 0.28125 C 9.148438 0.28125 7.59375 -0.113281 6.21875 -0.90625 C 4.851562 -1.707031 3.785156 -2.835938 3.015625 -4.296875 C 2.242188 -5.753906 1.859375 -7.445312 1.859375 -9.375 C 1.859375 -11.3125 2.242188 -13.003906 3.015625 -14.453125 C 3.785156 -15.898438 4.851562 -17.015625 6.21875 -17.796875 C 7.59375 -18.578125 9.148438 -18.96875 10.890625 -18.96875 Z M 18.828125 -9.375 C 18.828125 -11.007812 18.488281 -12.453125 17.8125 -13.703125 C 17.132812 -14.960938 16.207031 -15.929688 15.03125 -16.609375 C 13.863281 -17.285156 12.554688 -17.625 11.109375 -17.625 C 9.585938 -17.625 8.25 -17.296875 7.09375 -16.640625 C 5.945312 -15.984375 5.050781 -15.035156 4.40625 -13.796875 C 3.769531 -12.554688 3.453125 -11.082031 3.453125 -9.375 C 3.453125 -7.675781 3.769531 -6.207031 4.40625 -4.96875 C 5.050781 -3.726562 5.953125 -2.773438 7.109375 -2.109375 C 8.273438 -1.441406 9.609375 -1.109375 11.109375 -1.109375 C 12.554688 -1.109375 13.867188 -1.445312 15.046875 -2.125 C 16.234375 -2.800781 17.160156 -3.765625 17.828125 -5.015625 C 18.492188 -6.265625 18.828125 -7.71875 18.828125 -9.375 Z M 18.828125 -9.375 "/></g></g><g style="fill:#373643;fill-opacity:1;"><g transform="translate(492.392091, 326.87269)"><path style="stroke:none" d="M 11.3125 -19.109375 C 13.519531 -19.109375 15.320312 -18.421875 16.71875 -17.046875 C 18.125 -15.679688 18.828125 -13.65625 18.828125 -10.96875 L 18.828125 0 L 17.3125 0 L 17.3125 -10.859375 C 17.3125 -13.085938 16.75 -14.796875 15.625 -15.984375 C 14.5 -17.171875 12.96875 -17.765625 11.03125 -17.765625 C 9.007812 -17.765625 7.394531 -17.117188 6.1875 -15.828125 C 4.976562 -14.535156 4.375 -12.628906 4.375 -10.109375 L 4.375 0 L 2.828125 0 L 2.828125 -25.515625 L 4.375 -25.515625 L 4.375 -14.765625 C 4.90625 -16.160156 5.789062 -17.234375 7.03125 -17.984375 C 8.269531 -18.734375 9.695312 -19.109375 11.3125 -19.109375 Z M 11.3125 -19.109375 "/></g></g><g style="fill:#373643;fill-opacity:1;"><g transform="translate(514.325804, 326.87269)"><path style="stroke:none" d="M 5.140625 -17.375 L 5.140625 -5 C 5.140625 -3.625 5.390625 -2.675781 5.890625 -2.15625 C 6.398438 -1.632812 7.300781 -1.375 8.59375 -1.375 L 10.6875 -1.375 L 10.6875 0 L 8.34375 0 C 6.707031 0 5.503906 -0.382812 4.734375 -1.15625 C 3.972656 -1.925781 3.59375 -3.207031 3.59375 -5 L 3.59375 -17.375 L 0.765625 -17.375 L 0.765625 -18.71875 L 3.59375 -18.71875 L 3.59375 -23.484375 L 5.140625 -23.484375 L 5.140625 -18.71875 L 10.6875 -18.71875 L 10.6875 -17.375 Z M 5.140625 -17.375 "/></g></g><g style="fill:#373643;fill-opacity:1;"><g transform="translate(526.741129, 326.87269)"><path style="stroke:none" d=""/></g></g><g style="fill:#373643;fill-opacity:1;"><g transform="translate(536.914794, 326.87269)"><path style="stroke:none" d="M 16.203125 -24.203125 L 16.203125 -22.890625 L 9.3125 -22.890625 L 9.3125 0 L 7.765625 0 L 7.765625 -22.890625 L 0.859375 -22.890625 L 0.859375 -24.203125 Z M 16.203125 -24.203125 "/></g></g><g style="fill:#373643;fill-opacity:1;"><g transform="translate(554.434178, 326.87269)"><path style="stroke:none" d="M 3.625 -22.890625 C 3.25 -22.890625 2.9375 -23.007812 2.6875 -23.25 C 2.4375 -23.5 2.3125 -23.832031 2.3125 -24.25 C 2.3125 -24.632812 2.4375 -24.953125 2.6875 -25.203125 C 2.9375 -25.460938 3.25 -25.59375 3.625 -25.59375 C 3.988281 -25.59375 4.296875 -25.460938 4.546875 -25.203125 C 4.804688 -24.953125 4.9375 -24.632812 4.9375 -24.25 C 4.9375 -23.832031 4.804688 -23.5 4.546875 -23.25 C 4.296875 -23.007812 3.988281 -22.890625 3.625 -22.890625 Z M 4.375 -18.71875 L 4.375 0 L 2.828125 0 L 2.828125 -18.71875 Z M 4.375 -18.71875 "/></g></g><g style="fill:#373643;fill-opacity:1;"><g transform="translate(562.124804, 326.87269)"><path style="stroke:none" d="M 24.96875 -19.109375 C 27.101562 -19.109375 28.847656 -18.421875 30.203125 -17.046875 C 31.566406 -15.679688 32.25 -13.65625 32.25 -10.96875 L 32.25 0 L 30.71875 0 L 30.71875 -10.859375 C 30.71875 -13.085938 30.179688 -14.796875 29.109375 -15.984375 C 28.046875 -17.171875 26.582031 -17.765625 24.71875 -17.765625 C 22.789062 -17.765625 21.238281 -17.097656 20.0625 -15.765625 C 18.894531 -14.429688 18.3125 -12.5 18.3125 -9.96875 L 18.3125 0 L 16.796875 0 L 16.796875 -10.859375 C 16.796875 -13.085938 16.257812 -14.796875 15.1875 -15.984375 C 14.125 -17.171875 12.660156 -17.765625 10.796875 -17.765625 C 8.859375 -17.765625 7.300781 -17.097656 6.125 -15.765625 C 4.957031 -14.429688 4.375 -12.5 4.375 -9.96875 L 4.375 0 L 2.828125 0 L 2.828125 -18.71875 L 4.375 -18.71875 L 4.375 -14.65625 C 4.90625 -16.125 5.757812 -17.234375 6.9375 -17.984375 C 8.125 -18.734375 9.488281 -19.109375 11.03125 -19.109375 C 12.738281 -19.109375 14.207031 -18.664062 15.4375 -17.78125 C 16.664062 -16.894531 17.507812 -15.585938 17.96875 -13.859375 C 18.40625 -15.585938 19.253906 -16.894531 20.515625 -17.78125 C 21.785156 -18.664062 23.269531 -19.109375 24.96875 -19.109375 Z M 24.96875 -19.109375 "/></g></g><g style="fill:#373643;fill-opacity:1;"><g transform="translate(597.508435, 326.87269)"><path style="stroke:none" d="M 19.6875 -10.625 C 19.6875 -9.789062 19.664062 -9.171875 19.625 -8.765625 L 3.453125 -8.765625 C 3.492188 -7.078125 3.859375 -5.660156 4.546875 -4.515625 C 5.242188 -3.367188 6.15625 -2.503906 7.28125 -1.921875 C 8.40625 -1.347656 9.632812 -1.0625 10.96875 -1.0625 C 12.800781 -1.0625 14.335938 -1.515625 15.578125 -2.421875 C 16.828125 -3.335938 17.613281 -4.578125 17.9375 -6.140625 L 19.546875 -6.140625 C 19.179688 -4.234375 18.238281 -2.6875 16.71875 -1.5 C 15.207031 -0.3125 13.289062 0.28125 10.96875 0.28125 C 9.21875 0.28125 7.648438 -0.109375 6.265625 -0.890625 C 4.890625 -1.671875 3.8125 -2.789062 3.03125 -4.25 C 2.25 -5.71875 1.859375 -7.425781 1.859375 -9.375 C 1.859375 -11.332031 2.242188 -13.035156 3.015625 -14.484375 C 3.785156 -15.929688 4.859375 -17.039062 6.234375 -17.8125 C 7.617188 -18.582031 9.195312 -18.96875 10.96875 -18.96875 C 12.757812 -18.96875 14.316406 -18.582031 15.640625 -17.8125 C 16.960938 -17.039062 17.96875 -16.015625 18.65625 -14.734375 C 19.34375 -13.460938 19.6875 -12.09375 19.6875 -10.625 Z M 18.140625 -10.03125 C 18.210938 -11.6875 17.921875 -13.085938 17.265625 -14.234375 C 16.609375 -15.390625 15.710938 -16.25 14.578125 -16.8125 C 13.453125 -17.375 12.238281 -17.65625 10.9375 -17.65625 C 9.625 -17.65625 8.410156 -17.375 7.296875 -16.8125 C 6.179688 -16.25 5.269531 -15.390625 4.5625 -14.234375 C 3.863281 -13.085938 3.492188 -11.6875 3.453125 -10.03125 Z M 18.140625 -10.03125 "/></g></g><g style="fill:#373643;fill-opacity:1;"><g transform="translate(472.705965, 281.968008)"><path style="stroke:none" d="M 33.1875 -61.34375 C 37.863281 -61.34375 42.191406 -60.644531 46.171875 -59.25 C 50.148438 -57.863281 53.691406 -55.429688 56.796875 -51.953125 C 58.054688 -50.503906 58.609375 -49.113281 58.453125 -47.78125 C 58.296875 -46.457031 57.695312 -45.382812 56.65625 -44.5625 C 55.613281 -43.738281 54.378906 -43.359375 52.953125 -43.421875 C 51.523438 -43.484375 50.179688 -44.179688 48.921875 -45.515625 C 46.585938 -48.097656 44.109375 -49.769531 41.484375 -50.53125 C 38.859375 -51.289062 36.0625 -51.671875 33.09375 -51.671875 C 29.101562 -51.671875 25.609375 -50.800781 22.609375 -49.0625 C 19.609375 -47.320312 17.269531 -44.90625 15.59375 -41.8125 C 13.914062 -38.71875 13.078125 -35.082031 13.078125 -30.90625 C 13.078125 -26.476562 13.929688 -22.585938 15.640625 -19.234375 C 17.347656 -15.890625 19.734375 -13.300781 22.796875 -11.46875 C 25.867188 -9.632812 29.457031 -8.71875 33.5625 -8.71875 C 36.53125 -8.71875 39.5 -9.476562 42.46875 -11 C 45.445312 -12.519531 47.820312 -14.351562 49.59375 -16.5 C 50.851562 -18.007812 52.222656 -18.875 53.703125 -19.09375 C 55.191406 -19.320312 56.488281 -19.070312 57.59375 -18.34375 C 58.695312 -17.613281 59.359375 -16.585938 59.578125 -15.265625 C 59.804688 -13.941406 59.351562 -12.457031 58.21875 -10.8125 C 56.507812 -8.40625 54.296875 -6.316406 51.578125 -4.546875 C 48.859375 -2.773438 45.914062 -1.414062 42.75 -0.46875 C 39.59375 0.476562 36.46875 0.953125 33.375 0.953125 C 27.113281 0.953125 21.644531 -0.375 16.96875 -3.03125 C 12.289062 -5.6875 8.65625 -9.398438 6.0625 -14.171875 C 3.476562 -18.941406 2.1875 -24.519531 2.1875 -30.90625 C 2.1875 -37.039062 3.539062 -42.382812 6.25 -46.9375 C 8.96875 -51.488281 12.679688 -55.023438 17.390625 -57.546875 C 22.109375 -60.078125 27.375 -61.34375 33.1875 -61.34375 Z M 33.1875 -61.34375 "/></g></g><g style="fill:#373643;fill-opacity:1;"><g transform="translate(532.33914, 281.968008)"><path style="stroke:none" d="M 31.390625 -49.203125 C 35.804688 -49.203125 39.5625 -48.238281 42.65625 -46.3125 C 45.757812 -44.382812 48.128906 -41.710938 49.765625 -38.296875 C 51.410156 -34.890625 52.234375 -30.910156 52.234375 -26.359375 L 52.234375 -4.9375 C 52.234375 -3.476562 51.773438 -2.289062 50.859375 -1.375 C 49.941406 -0.457031 48.601562 0 46.84375 0 C 45.257812 0 43.960938 -0.457031 42.953125 -1.375 C 41.941406 -2.289062 41.4375 -3.476562 41.4375 -4.9375 L 41.4375 -26.546875 C 41.4375 -30.460938 40.503906 -33.632812 38.640625 -36.0625 C 36.773438 -38.5 33.847656 -39.71875 29.859375 -39.71875 C 28.660156 -39.71875 27.253906 -39.445312 25.640625 -38.90625 C 24.035156 -38.375 22.472656 -37.507812 20.953125 -36.3125 C 19.429688 -35.113281 18.164062 -33.566406 17.15625 -31.671875 C 16.144531 -29.773438 15.640625 -27.4375 15.640625 -24.65625 L 15.640625 -4.9375 C 15.640625 -3.476562 15.179688 -2.289062 14.265625 -1.375 C 13.347656 -0.457031 12.035156 0 10.328125 0 C 8.628906 0 7.269531 -0.457031 6.25 -1.375 C 5.238281 -2.289062 4.734375 -3.476562 4.734375 -4.9375 L 4.734375 -56.796875 C 4.734375 -58.242188 5.316406 -59.363281 6.484375 -60.15625 C 7.660156 -60.945312 8.910156 -61.34375 10.234375 -61.34375 C 11.628906 -61.34375 12.878906 -60.945312 13.984375 -60.15625 C 15.085938 -59.363281 15.640625 -58.242188 15.640625 -56.796875 L 15.640625 -43.890625 C 18.234375 -46.109375 20.921875 -47.546875 23.703125 -48.203125 C 26.484375 -48.867188 29.046875 -49.203125 31.390625 -49.203125 Z M 31.390625 -49.203125 "/></g></g><g style="fill:#373643;fill-opacity:1;"><g transform="translate(589.886579, 281.968008)"><path style="stroke:none" d="M 44.09375 -48.265625 C 45.726562 -48.265625 47.035156 -47.804688 48.015625 -46.890625 C 48.992188 -45.972656 49.484375 -44.785156 49.484375 -43.328125 L 49.484375 -4.9375 C 49.484375 -3.476562 48.992188 -2.289062 48.015625 -1.375 C 47.035156 -0.457031 45.726562 0 44.09375 0 C 42.507812 0 41.273438 -0.363281 40.390625 -1.09375 C 39.503906 -1.820312 38.96875 -2.785156 38.78125 -3.984375 C 36.625 -2.273438 34.21875 -1.023438 31.5625 -0.234375 C 28.914062 0.554688 26.390625 0.953125 23.984375 0.953125 C 19.429688 0.953125 15.492188 -0.0859375 12.171875 -2.171875 C 8.859375 -4.265625 6.316406 -7.207031 4.546875 -11 C 2.773438 -14.789062 1.890625 -19.210938 1.890625 -24.265625 C 1.890625 -29.203125 2.867188 -33.535156 4.828125 -37.265625 C 6.796875 -40.992188 9.53125 -43.914062 13.03125 -46.03125 C 16.539062 -48.144531 20.601562 -49.203125 25.21875 -49.203125 C 27.238281 -49.203125 29.484375 -48.820312 31.953125 -48.0625 C 34.421875 -47.3125 36.695312 -46.113281 38.78125 -44.46875 C 39.03125 -45.601562 39.597656 -46.519531 40.484375 -47.21875 C 41.367188 -47.914062 42.570312 -48.265625 44.09375 -48.265625 Z M 25.125 -8.625 C 27.90625 -8.625 30.59375 -9.238281 33.1875 -10.46875 C 35.78125 -11.707031 37.613281 -13.523438 38.6875 -15.921875 L 38.6875 -32.328125 C 37.476562 -34.671875 35.671875 -36.472656 33.265625 -37.734375 C 30.867188 -38.992188 28.441406 -39.625 25.984375 -39.625 C 21.992188 -39.625 18.78125 -38.171875 16.34375 -35.265625 C 13.914062 -32.359375 12.703125 -28.660156 12.703125 -24.171875 C 12.703125 -19.492188 13.835938 -15.734375 16.109375 -12.890625 C 18.390625 -10.046875 21.394531 -8.625 25.125 -8.625 Z M 25.125 -8.625 "/></g></g><g style="fill:#373643;fill-opacity:1;"><g transform="translate(644.684622, 281.968008)"><path style="stroke:none" d="M 31.390625 -49.203125 C 35.804688 -49.203125 39.5625 -48.238281 42.65625 -46.3125 C 45.757812 -44.382812 48.128906 -41.710938 49.765625 -38.296875 C 51.410156 -34.890625 52.234375 -30.910156 52.234375 -26.359375 L 52.234375 -4.9375 C 52.234375 -3.476562 51.773438 -2.289062 50.859375 -1.375 C 49.941406 -0.457031 48.601562 0 46.84375 0 C 45.257812 0 43.960938 -0.457031 42.953125 -1.375 C 41.941406 -2.289062 41.4375 -3.476562 41.4375 -4.9375 L 41.4375 -26.546875 C 41.4375 -30.460938 40.503906 -33.632812 38.640625 -36.0625 C 36.773438 -38.5 33.847656 -39.71875 29.859375 -39.71875 C 28.660156 -39.71875 27.253906 -39.445312 25.640625 -38.90625 C 24.035156 -38.375 22.472656 -37.507812 20.953125 -36.3125 C 19.429688 -35.113281 18.164062 -33.566406 17.15625 -31.671875 C 16.144531 -29.773438 15.640625 -27.4375 15.640625 -24.65625 L 15.640625 -4.9375 C 15.640625 -3.476562 15.179688 -2.289062 14.265625 -1.375 C 13.347656 -0.457031 12.035156 0 10.328125 0 C 8.628906 0 7.269531 -0.457031 6.25 -1.375 C 5.238281 -2.289062 4.734375 -3.476562 4.734375 -4.9375 L 4.734375 -56.796875 C 4.734375 -58.242188 5.316406 -59.363281 6.484375 -60.15625 C 7.660156 -60.945312 8.910156 -61.34375 10.234375 -61.34375 C 11.628906 -61.34375 12.878906 -60.945312 13.984375 -60.15625 C 15.085938 -59.363281 15.640625 -58.242188 15.640625 -56.796875 L 15.640625 -43.890625 C 18.234375 -46.109375 20.921875 -47.546875 23.703125 -48.203125 C 26.484375 -48.867188 29.046875 -49.203125 31.390625 -49.203125 Z M 31.390625 -49.203125 "/></g></g><g style="fill:#373643;fill-opacity:1;"><g transform="translate(702.232061, 281.968008)"><path style="stroke:none" d="M 14.21875 -55.375 C 14.21875 -53.789062 13.632812 -52.601562 12.46875 -51.8125 C 11.300781 -51.019531 10.050781 -50.625 8.71875 -50.625 C 7.332031 -50.625 6.066406 -51.019531 4.921875 -51.8125 C 3.785156 -52.601562 3.21875 -53.789062 3.21875 -55.375 L 3.21875 -56.609375 C 3.21875 -58.242188 3.785156 -59.441406 4.921875 -60.203125 C 6.066406 -60.960938 7.332031 -61.34375 8.71875 -61.34375 C 10.050781 -61.34375 11.300781 -60.960938 12.46875 -60.203125 C 13.632812 -59.441406 14.21875 -58.242188 14.21875 -56.609375 Z M 3.3125 -43.609375 C 3.3125 -45.128906 3.894531 -46.285156 5.0625 -47.078125 C 6.238281 -47.867188 7.457031 -48.265625 8.71875 -48.265625 C 10.050781 -48.265625 11.285156 -47.867188 12.421875 -47.078125 C 13.554688 -46.285156 14.125 -45.160156 14.125 -43.703125 L 14.125 -4.640625 C 14.125 -3.066406 13.554688 -1.898438 12.421875 -1.140625 C 11.285156 -0.378906 10.050781 0 8.71875 0 C 7.457031 0 6.238281 -0.378906 5.0625 -1.140625 C 3.894531 -1.898438 3.3125 -3.066406 3.3125 -4.640625 Z M 3.3125 -43.609375 "/></g></g><g style="fill:#373643;fill-opacity:1;"><g transform="translate(717.780094, 281.968008)"><path style="stroke:none" d="M 44.1875 -48.265625 C 45.820312 -48.265625 47.222656 -47.550781 48.390625 -46.125 C 49.566406 -44.707031 49.804688 -43.050781 49.109375 -41.15625 L 21.421875 13.171875 C 20.796875 14.378906 19.992188 15.328125 19.015625 16.015625 C 18.035156 16.710938 17.003906 17.0625 15.921875 17.0625 C 14.847656 17.0625 13.851562 16.695312 12.9375 15.96875 C 12.019531 15.25 11.390625 14.316406 11.046875 13.171875 C 10.703125 12.035156 10.84375 10.835938 11.46875 9.578125 L 18.671875 -4.640625 L 0 -40.765625 C -0.570312 -42.035156 -0.648438 -43.238281 -0.234375 -44.375 C 0.171875 -45.507812 0.847656 -46.441406 1.796875 -47.171875 C 2.742188 -47.898438 3.789062 -48.265625 4.9375 -48.265625 C 5.945312 -48.265625 6.925781 -47.945312 7.875 -47.3125 C 8.820312 -46.675781 9.515625 -45.851562 9.953125 -44.84375 L 24.5625 -16.3125 L 39.15625 -44.9375 C 39.601562 -45.945312 40.265625 -46.753906 41.140625 -47.359375 C 42.023438 -47.960938 43.039062 -48.265625 44.1875 -48.265625 Z M 44.1875 -48.265625 "/></g></g><g style="fill:#373643;fill-opacity:1;"><g transform="translate(767.174143, 281.968008)"><path style="stroke:none" d="M 27.109375 -8.4375 C 28.941406 -8.4375 30.742188 -8.6875 32.515625 -9.1875 C 34.285156 -9.695312 35.929688 -10.550781 37.453125 -11.75 C 38.898438 -13.082031 40.316406 -13.703125 41.703125 -13.609375 C 43.097656 -13.515625 44.253906 -13.007812 45.171875 -12.09375 C 46.085938 -11.175781 46.546875 -10.035156 46.546875 -8.671875 C 46.546875 -7.316406 45.882812 -6.003906 44.5625 -4.734375 C 42.351562 -2.585938 39.726562 -1.085938 36.6875 -0.234375 C 33.65625 0.617188 30.5625 1.015625 27.40625 0.953125 C 22.46875 0.953125 18.117188 -0.0546875 14.359375 -2.078125 C 10.597656 -4.109375 7.660156 -6.921875 5.546875 -10.515625 C 3.429688 -14.117188 2.375 -18.296875 2.375 -23.046875 C 2.375 -28.222656 3.382812 -32.769531 5.40625 -36.6875 C 7.425781 -40.613281 10.285156 -43.679688 13.984375 -45.890625 C 17.679688 -48.097656 22.054688 -49.203125 27.109375 -49.203125 C 32.171875 -49.203125 36.472656 -48.175781 40.015625 -46.125 C 43.554688 -44.070312 46.257812 -41.195312 48.125 -37.5 C 49.988281 -33.800781 50.921875 -29.488281 50.921875 -24.5625 C 50.921875 -22.976562 50.601562 -21.632812 49.96875 -20.53125 C 49.332031 -19.425781 47.65625 -18.875 44.9375 -18.875 L 13.375 -18.875 C 14.257812 -15.769531 15.929688 -13.253906 18.390625 -11.328125 C 20.859375 -9.398438 23.765625 -8.4375 27.109375 -8.4375 Z M 27.21875 -39.828125 C 23.550781 -39.828125 20.484375 -38.671875 18.015625 -36.359375 C 15.546875 -34.054688 13.96875 -31.039062 13.28125 -27.3125 L 40.859375 -27.3125 C 40.546875 -31.039062 39.3125 -34.054688 37.15625 -36.359375 C 35.007812 -38.671875 31.695312 -39.828125 27.21875 -39.828125 Z M 27.21875 -39.828125 "/></g></g><g style="fill:#373643;fill-opacity:1;"><g transform="translate(822.256605, 281.968008)"><path style="stroke:none" d="M 6.828125 -10.140625 C 8.660156 -10.140625 10.128906 -9.617188 11.234375 -8.578125 C 12.335938 -7.535156 12.890625 -6.191406 12.890625 -4.546875 C 12.890625 -2.972656 12.335938 -1.660156 11.234375 -0.609375 C 10.128906 0.429688 8.660156 0.953125 6.828125 0.953125 C 5.054688 0.953125 3.566406 0.429688 2.359375 -0.609375 C 1.160156 -1.660156 0.5625 -2.972656 0.5625 -4.546875 C 0.5625 -6.191406 1.160156 -7.535156 2.359375 -8.578125 C 3.566406 -9.617188 5.054688 -10.140625 6.828125 -10.140625 Z M 6.828125 -10.140625 "/></g></g><g style="fill:#373643;fill-opacity:1;"><g transform="translate(832.021426, 281.968008)"><path style="stroke:none" d="M 37.453125 -35.265625 C 35.992188 -36.972656 34.285156 -38.175781 32.328125 -38.875 C 30.367188 -39.570312 28.441406 -39.921875 26.546875 -39.921875 C 22.378906 -39.921875 19.03125 -38.476562 16.5 -35.59375 C 13.96875 -32.71875 12.703125 -28.847656 12.703125 -23.984375 C 12.703125 -19.304688 14.015625 -15.546875 16.640625 -12.703125 C 19.265625 -9.859375 22.691406 -8.4375 26.921875 -8.4375 C 28.816406 -8.4375 30.742188 -8.765625 32.703125 -9.421875 C 34.671875 -10.085938 36.410156 -11.179688 37.921875 -12.703125 C 39.316406 -14.097656 40.691406 -14.828125 42.046875 -14.890625 C 43.410156 -14.953125 44.535156 -14.570312 45.421875 -13.75 C 46.304688 -12.925781 46.796875 -11.863281 46.890625 -10.5625 C 46.984375 -9.269531 46.425781 -7.960938 45.21875 -6.640625 C 42.757812 -3.921875 39.929688 -1.972656 36.734375 -0.796875 C 33.546875 0.367188 30.242188 0.953125 26.828125 0.953125 C 21.835938 0.953125 17.460938 -0.0859375 13.703125 -2.171875 C 9.941406 -4.265625 7.015625 -7.175781 4.921875 -10.90625 C 2.835938 -14.632812 1.796875 -18.960938 1.796875 -23.890625 C 1.796875 -29.015625 2.820312 -33.472656 4.875 -37.265625 C 6.9375 -41.054688 9.832031 -43.992188 13.5625 -46.078125 C 17.289062 -48.160156 21.617188 -49.203125 26.546875 -49.203125 C 30.023438 -49.203125 33.265625 -48.664062 36.265625 -47.59375 C 39.265625 -46.519531 42.03125 -44.5 44.5625 -41.53125 C 45.695312 -40.195312 46.1875 -38.898438 46.03125 -37.640625 C 45.875 -36.378906 45.320312 -35.335938 44.375 -34.515625 C 43.425781 -33.691406 42.300781 -33.296875 41 -33.328125 C 39.707031 -33.359375 38.523438 -34.003906 37.453125 -35.265625 Z M 37.453125 -35.265625 "/></g></g><g style="fill:#373643;fill-opacity:1;"><g transform="translate(879.424515, 281.968008)"><path style="stroke:none" d="M 27.109375 -49.203125 C 32.171875 -49.203125 36.597656 -48.144531 40.390625 -46.03125 C 44.179688 -43.914062 47.117188 -40.960938 49.203125 -37.171875 C 51.296875 -33.378906 52.34375 -28.953125 52.34375 -23.890625 C 52.269531 -18.960938 51.175781 -14.632812 49.0625 -10.90625 C 46.945312 -7.175781 44.007812 -4.265625 40.25 -2.171875 C 36.488281 -0.0859375 32.109375 0.953125 27.109375 0.953125 C 22.179688 0.953125 17.820312 -0.0859375 14.03125 -2.171875 C 10.238281 -4.265625 7.28125 -7.175781 5.15625 -10.90625 C 3.039062 -14.632812 1.953125 -18.960938 1.890625 -23.890625 C 1.890625 -28.953125 2.945312 -33.378906 5.0625 -37.171875 C 7.1875 -40.960938 10.144531 -43.914062 13.9375 -46.03125 C 17.726562 -48.144531 22.117188 -49.203125 27.109375 -49.203125 Z M 27.109375 -8.53125 C 31.410156 -8.53125 34.84375 -9.953125 37.40625 -12.796875 C 39.96875 -15.640625 41.25 -19.335938 41.25 -23.890625 C 41.25 -28.566406 39.96875 -32.375 37.40625 -35.3125 C 34.84375 -38.25 31.410156 -39.71875 27.109375 -39.71875 C 22.878906 -39.71875 19.46875 -38.25 16.875 -35.3125 C 14.28125 -32.375 12.984375 -28.566406 12.984375 -23.890625 C 12.984375 -19.335938 14.28125 -15.640625 16.875 -12.796875 C 19.46875 -9.953125 22.878906 -8.53125 27.109375 -8.53125 Z M 27.109375 -8.53125 "/></g></g><g style="fill:#373643;fill-opacity:1;"><g transform="translate(932.042044, 281.968008)"><path style="stroke:none" d="M 69.40625 -49.203125 C 73.832031 -49.203125 77.59375 -48.238281 80.6875 -46.3125 C 83.78125 -44.382812 86.148438 -41.695312 87.796875 -38.25 C 89.441406 -34.8125 90.265625 -30.816406 90.265625 -26.265625 L 90.265625 -4.9375 C 90.265625 -3.476562 89.804688 -2.289062 88.890625 -1.375 C 87.972656 -0.457031 86.628906 0 84.859375 0 C 83.273438 0 81.976562 -0.457031 80.96875 -1.375 C 79.957031 -2.289062 79.453125 -3.476562 79.453125 -4.9375 L 79.453125 -26.453125 C 79.453125 -30.367188 78.519531 -33.554688 76.65625 -36.015625 C 74.789062 -38.484375 71.867188 -39.71875 67.890625 -39.71875 C 65.867188 -39.71875 63.734375 -39.085938 61.484375 -37.828125 C 59.242188 -36.566406 57.347656 -34.734375 55.796875 -32.328125 C 54.242188 -29.929688 53.46875 -26.992188 53.46875 -23.515625 L 53.46875 -4.9375 C 53.46875 -3.476562 53.007812 -2.289062 52.09375 -1.375 C 51.175781 -0.457031 49.867188 0 48.171875 0 C 46.585938 0 45.273438 -0.457031 44.234375 -1.375 C 43.191406 -2.289062 42.671875 -3.476562 42.671875 -4.9375 L 42.671875 -26.453125 C 42.671875 -30.367188 41.738281 -33.554688 39.875 -36.015625 C 38.007812 -38.484375 35.082031 -39.71875 31.09375 -39.71875 C 29.894531 -39.71875 28.503906 -39.382812 26.921875 -38.71875 C 25.347656 -38.0625 23.800781 -37.066406 22.28125 -35.734375 C 20.757812 -34.410156 19.507812 -32.738281 18.53125 -30.71875 C 17.550781 -28.695312 17.0625 -26.296875 17.0625 -23.515625 L 17.0625 -4.734375 C 17.0625 -3.160156 16.492188 -1.976562 15.359375 -1.1875 C 14.222656 -0.394531 12.988281 0 11.65625 0 C 10.269531 0 9.039062 -0.394531 7.96875 -1.1875 C 6.894531 -1.976562 6.359375 -3.160156 6.359375 -4.734375 L 6.359375 -43.421875 C 6.359375 -44.753906 6.878906 -45.894531 7.921875 -46.84375 C 8.960938 -47.789062 10.207031 -48.265625 11.65625 -48.265625 C 13.300781 -48.265625 14.613281 -47.789062 15.59375 -46.84375 C 16.570312 -45.894531 17.0625 -44.753906 17.0625 -43.421875 L 17.0625 -43.140625 C 19.65625 -45.609375 22.3125 -47.234375 25.03125 -48.015625 C 27.75 -48.804688 30.304688 -49.203125 32.703125 -49.203125 C 36.691406 -49.203125 40.140625 -48.394531 43.046875 -46.78125 C 45.953125 -45.175781 48.257812 -42.984375 49.96875 -40.203125 C 51.925781 -42.597656 54.039062 -44.441406 56.3125 -45.734375 C 58.59375 -47.035156 60.867188 -47.9375 63.140625 -48.4375 C 65.421875 -48.945312 67.507812 -49.203125 69.40625 -49.203125 Z M 69.40625 -49.203125 "/></g></g><g clip-rule="nonzero" clip-path="url(#3fff816433)"><g clip-rule="nonzero" clip-path="url(#11cd383e15)"><g clip-rule="nonzero" clip-path="url(#f33c93c4d9)"><path style=" stroke:none;fill-rule:nonzero;fill:#ff914d;fill-opacity:1;" d="M 589.597656 43.75 L 513.496094 43.363281 C 498.800781 43.289062 497.445312 71.96875 514.851562 71.753906 L 562.171875 71.175781 L 560.433594 118.882812 C 559.902344 133.40625 588.210938 133.828125 588.4375 119.074219 Z M 589.597656 43.75 "/></g></g></g></g></svg>